Coordinates
version=1
nRows=8
nColumns=63
inDegrees=yes

Units are S.I. units (second, meters, Newtons, ...)
If the header above contains a line with 'inDegrees', this indicates whether rotational values are in degrees (yes) or radians (no).

endheader
time	pelvis_tilt	pelvis_list	pelvis_rotation	pelvis_tx	pelvis_ty	pelvis_tz	hip_flexion_r	hip_adduction_r	hip_rotation_r	knee_angle_r	knee_angle_r_beta	ankle_angle_r	subtalar_angle_r	mtp_angle_r	hip_flexion_l	hip_adduction_l	hip_rotation_l	knee_angle_l	knee_angle_l_beta	ankle_angle_l	subtalar_angle_l	mtp_angle_l	L5_S1_Flex_Ext	L5_S1_Lat_Bending	L5_S1_axial_rotation	L4_L5_Flex_Ext	L4_L5_Lat_Bending	L4_L5_axial_rotation	L3_L4_Flex_Ext	L3_L4_Lat_Bending	L3_L4_axial_rotation	L2_L3_Flex_Ext	L2_L3_Lat_Bending	L2_L3_axial_rotation	L1_L2_Flex_Ext	L1_L2_Lat_Bending	L1_L2_axial_rotation	L1_T12_Flex_Ext	L1_T12_Lat_Bending	L1_T12_axial_rotation	Abs_r3	Abs_r2	Abs_r1	Abs_t1	Abs_t2	neck_flexion	neck_bending	neck_rotation	arm_flex_r	arm_add_r	arm_rot_r	elbow_flex_r	pro_sup_r	wrist_flex_r	wrist_dev_r	arm_flex_l	arm_add_l	arm_rot_l	elbow_flex_l	pro_sup_l	wrist_flex_l	wrist_dev_l
0.000000	-2.351545	-3.436545	96.626038	0.210795	0.971829	0.572436	5.331956	-4.027744	-14.590558	6.373547	0.111239	21.950980	14.474126	0.000000	5.552077	3.621545	-3.276629	3.287076	0.057370	15.730313	1.246599	0.000000	0.152747	-0.412533	1.179394	0.283667	-0.548669	1.253106	0.250949	-1.003032	1.253106	0.174575	-1.003032	1.031970	0.141841	-0.841237	0.958258	0.087280	-0.639013	0.884545	1.091059	-4.666653	6.559435	0.000000	0.000000	24.914397	4.270982	-6.214706	14.470971	-5.401316	57.299946	30.859645	91.214920	4.827016	1.562395	26.349384	-3.015046	103.013548	33.389556	37.483795	-12.142746	-10.621785
0.023810	-2.814738	-3.532803	95.239346	0.212368	0.971643	0.572804	5.948270	-4.501226	-13.546899	6.951752	0.121331	21.865498	14.457278	0.000000	5.715953	3.953300	-4.745055	3.485625	0.060836	16.042530	1.710823	0.000000	0.158398	-0.461769	1.194026	0.294161	-0.614153	1.268653	0.260232	-1.122746	1.268653	0.181033	-1.122746	1.044773	0.147088	-0.941640	0.970146	0.090509	-0.715281	0.895520	1.131421	-5.223628	6.640815	0.000000	0.000000	25.407677	4.336433	-5.700812	14.397524	-5.068403	57.773748	30.383446	82.387268	6.829929	3.053956	25.390690	-2.938307	102.646637	32.809360	40.162909	-14.291096	-13.450146
0.047619	-3.137480	-3.589238	94.106786	0.213536	0.971592	0.573118	6.428746	-4.831162	-12.687528	7.414817	0.129413	21.776648	14.454312	0.000000	5.825538	4.172051	-5.977192	3.631839	0.063388	16.308243	2.112548	0.000000	0.161407	-0.492968	1.189275	0.299749	-0.655647	1.263605	0.265175	-1.198601	1.263605	0.184472	-1.198601	1.040616	0.149882	-1.005259	0.966286	0.092228	-0.763607	0.891957	1.152913	-5.576547	6.614393	0.000000	0.000000	25.808932	4.336657	-5.207916	14.411105	-4.832193	58.573572	30.026708	75.179206	8.400703	4.155205	24.560399	-2.917536	102.103470	32.378217	42.865594	-16.068287	-15.641143
0.071429	-3.334149	-3.609794	93.208325	0.214337	0.971660	0.573379	6.785026	-5.032407	-11.999335	7.773096	0.135666	21.685398	14.464355	0.000000	5.885783	4.289875	-6.986743	3.730816	0.065115	16.529350	2.450873	0.000000	0.162129	-0.508135	1.167593	0.301090	-0.675819	1.240567	0.266362	-1.235478	1.240567	0.185297	-1.235478	1.021644	0.150553	-1.036188	0.948669	0.092640	-0.787100	0.875694	1.158071	-5.748120	6.493800	0.000000	0.000000	26.124481	4.283121	-4.736849	14.499024	-4.682659	59.646928	29.776762	69.440963	9.583490	4.908755	23.850103	-2.944820	101.416136	32.079712	45.557225	-17.503802	-17.258099
0.095238	-3.419119	-3.598416	92.523934	0.214810	0.971834	0.573587	7.028751	-5.119818	-11.469210	8.036943	0.140271	21.592718	14.486536	0.000000	5.901639	4.318849	-7.787412	3.787659	0.066107	16.707751	2.724900	0.000000	0.160920	-0.509278	1.131429	0.298844	-0.677340	1.202143	0.264375	-1.238259	1.202143	0.183915	-1.238259	0.990000	0.149430	-1.038520	0.919286	0.091950	-0.788872	0.848572	1.149434	-5.761056	6.292669	0.000000	0.000000	26.360641	4.187288	-4.288438	14.648590	-4.609774	60.941324	29.620940	65.022768	10.422445	5.357217	23.251396	-3.012248	100.616723	31.897435	48.203173	-18.627122	-18.364335
0.119048	-3.406768	-3.559049	92.033580	0.214992	0.972096	0.573745	7.171562	-5.108248	-11.084043	8.216710	0.143409	21.499576	14.519984	0.000000	5.878055	4.271050	-8.392903	3.807465	0.066453	16.845346	2.933730	0.000000	0.158134	-0.498406	1.083235	0.293671	-0.662879	1.150937	0.259799	-1.211823	1.150937	0.180732	-1.211823	0.947831	0.146844	-1.016349	0.880129	0.090358	-0.772030	0.812426	1.129537	-5.638063	6.024630	0.000000	0.000000	26.523730	4.060624	-3.863513	14.847110	-4.603509	62.404268	29.546574	61.774850	10.961723	5.543206	22.755872	-3.111907	99.737319	31.814971	50.768811	-19.467728	-19.023174
0.142857	-3.311471	-3.495638	91.717231	0.214922	0.972433	0.573852	7.225101	-5.012554	-10.830726	8.322753	0.145259	21.406942	14.563825	0.000000	5.819982	4.158555	-8.816920	3.795335	0.066241	16.944034	3.076464	0.000000	0.154128	-0.477524	1.025463	0.286231	-0.635107	1.089554	0.253217	-1.161053	1.089554	0.176153	-1.161053	0.897280	0.143123	-0.973768	0.833188	0.088069	-0.739685	0.769097	1.100919	-5.401852	5.703315	0.000000	0.000000	26.620065	3.914594	-3.462903	15.081895	-4.653838	63.983269	29.540996	59.547440	11.245476	5.509332	22.355123	-3.235885	98.810012	31.815909	53.219513	-20.055102	-19.297937
0.166667	-3.147605	-3.412128	91.554857	0.214638	0.972828	0.573909	7.201009	-4.847592	-10.696148	8.365424	0.146004	21.315786	14.617189	0.000000	5.732371	3.993441	-9.073167	3.756369	0.065561	17.005714	3.152204	0.000000	0.149255	-0.448642	0.960562	0.277182	-0.596694	1.020597	0.245212	-1.090829	1.020597	0.170584	-1.090829	0.840492	0.138599	-0.914871	0.780456	0.085285	-0.694947	0.720421	1.066117	-5.075130	5.342357	0.000000	0.000000	26.655963	3.760662	-3.087436	15.340253	-4.750732	65.625836	29.591536	58.190765	11.317859	5.298209	22.040743	-3.376269	97.866889	31.883834	55.520649	-20.418726	-19.251948
